<?xml version="1.0" encoding="UTF-8"?>
<svg width="66px" height="32px" viewBox="0 0 66 32" version="1.1" xmlns="http://www.w3.org/2000/svg" xmlns:xlink="http://www.w3.org/1999/xlink">
    <title>Group 14</title>
    <defs>
        <linearGradient x1="-0.0155300939%" y1="99.9962743%" x2="100.000959%" y2="99.9962743%" id="linearGradient-1">
            <stop stop-color="#71CFF5" offset="10%"></stop>
            <stop stop-color="#8AC440" offset="100%"></stop>
        </linearGradient>
        <linearGradient x1="0.00062312105%" y1="99.9724508%" x2="99.9913722%" y2="99.9724508%" id="linearGradient-2">
            <stop stop-color="#71CFF5" offset="10%"></stop>
            <stop stop-color="#8AC440" offset="100%"></stop>
        </linearGradient>
    </defs>
    <g id="Yeild-Farm" stroke="none" stroke-width="1" fill="none" fill-rule="evenodd">
        <g id="RE_Farm-+-DMM/AMM-+-Filter-Copy" transform="translate(-1075.000000, -965.000000)">
            <g id="Group-14" transform="translate(1075.000000, 965.000000)">
                <rect id="Rectangle" x="0" y="0" width="66" height="32"></rect>
                <g id="Group-9" transform="translate(6.000000, 0.000000)">
                    <g id="BNB-(1)" transform="translate(23.000000, 0.000000)" fill-rule="nonzero">
                        <circle id="Oval" fill="#F0B90A" cx="16" cy="16" r="16"></circle>
                        <path d="M11.5452978,14.0072772 L15.7239335,9.82873655 L19.904721,14.009429 L22.336162,11.5779807 L15.7239335,4.96551724 L9.11396439,11.575829 L11.5452978,14.0072772 M4.96551724,15.7238044 L7.39703354,13.2922808 L9.82838844,15.7236538 L7.39689368,18.1551559 L4.96551724,15.7238044 Z M11.5452978,17.4409986 L15.7239335,21.6195393 L19.9046134,17.4389545 L22.3373453,19.8691117 L22.336162,19.8704028 L15.7239335,26.4827586 L9.11374922,19.8726621 L9.11030646,19.8692193 L11.5452978,17.4409986 M21.6198874,15.7251385 L24.0514037,13.2936257 L26.4827586,15.7249879 L24.0512531,18.1565114 L21.6198874,15.7251385 Z" id="Shape" fill="#FFFFFF"></path>
                        <polyline id="Path" fill="#FFFFFF" points="18.7560959 15.9985572 18.7572981 15.9985572 16 13.2413793 13.962295 15.2789954 13.9621748 15.2789954 13.7280815 15.5131988 13.2452268 15.9961527 13.2413793 15.9998797 13.2452268 16.0038473 16 18.7586207 18.7572981 16.0014428 18.7586207 15.9998797 18.7560959 15.9985572"></polyline>
                    </g>
                    <g id="ico_coinevry">
                        <circle id="Oval" fill="#232156" fill-rule="nonzero" cx="16.2561576" cy="16" r="16"></circle>
                        <path d="M3.81795577,13.8728879 L4.47979112,14.2247866 C4.7600713,14.3740139 5.09537839,14.3740139 5.37565857,14.2247866 L14.3075189,9.47955884 C14.9787244,9.12338469 15.780987,9.12338469 16.4521925,9.47955884 L25.4684639,14.2344659 C25.7471805,14.3816148 26.079855,14.3816148 26.3585716,14.2344659 L27.033814,13.8728879 C27.1918217,13.7888622 27.2906404,13.6236017 27.2906404,13.4436144 C27.2906404,13.2635677 27.1918217,13.0983072 27.033814,13.0143408 L16.448383,7.4395444 C15.7771207,7.08337026 14.974915,7.08337026 14.3036526,7.4395444 L3.81795577,13.0201009 C3.66297866,13.1050767 3.56650246,13.2686745 3.56650246,13.4465241 C3.56650246,13.6243143 3.66297866,13.7879121 3.81795577,13.8728879 Z" id="Path" fill="url(#linearGradient-1)" fill-rule="nonzero"></path>
                        <path d="M16.5703997,21.3860164 L25.4689756,16.5990601 C25.7507056,16.4514233 26.085882,16.4550637 26.364428,16.6088255 L27.0335866,16.9662163 C27.1916511,17.0504646 27.2906404,17.2171699 27.2906404,17.3988412 C27.2906404,17.5805124 27.1916511,17.7472177 27.0335866,17.831466 L16.5742092,23.454318 C15.9033448,23.8140779 15.1014803,23.8140779 14.4305591,23.454318 L3.823579,17.7962759 C3.66554294,17.7120276 3.56650246,17.54538 3.56650246,17.3637088 C3.56650246,17.1819798 3.66554294,17.0153322 3.823579,16.9310839 L14.2829564,11.3043027 C14.9538208,10.9445428 15.7556853,10.9445428 16.4266065,11.3043027 L23.1719802,14.8901139 C23.3298741,14.97494 23.4286928,15.1418765 23.4286928,15.3237211 C23.4286928,15.5055657 23.3298741,15.6724443 23.1719802,15.7572705 L16.4611192,19.3294448 C15.7896862,19.6898981 14.9869688,19.6898981 14.3155359,19.3294448 L9.20379854,16.5775647 C8.92314879,16.426172 8.58706275,16.426172 8.30641299,16.5775647 L7.66409122,16.9232832 C7.5061973,17.0081093 7.40743543,17.174988 7.40743543,17.3568326 C7.40743543,17.5386772 7.5061973,17.7055558 7.66409122,17.7904398 L14.4267496,21.3860164 C15.0976708,21.7457763 15.8994785,21.7457763 16.5703997,21.3860164 Z M14.3040506,13.3726043 L11.4893087,14.8862424 C11.3322677,14.9707796 11.2340744,15.1369071 11.2340744,15.3178272 C11.2340744,15.498805 11.3322677,15.6648747 11.4893087,15.7494697 L14.3212785,17.2787093 C14.9921997,17.6384692 15.7940074,17.6384692 16.4649286,17.2787093 L19.31225,15.7650712 C19.4703145,15.6808229 19.5693607,15.5141754 19.5693607,15.3325042 C19.5693607,15.1507751 19.4703145,14.9841276 19.31225,14.8998793 L16.4477007,13.3726043 C15.7767795,13.0128444 14.974915,13.0128444 14.3040506,13.3726043 Z" id="Shape" fill="url(#linearGradient-2)"></path>
                    </g>
                </g>
            </g>
        </g>
    </g>
</svg>